<svg width="34" height="34" viewBox="0 0 34 34" fill="none" xmlns="http://www.w3.org/2000/svg">
<path fill-rule="evenodd" clip-rule="evenodd" d="M4.1174 17.0782C4.1174 14.6367 4.39144 12.9376 5.40056 10.92C5.9534 9.81633 6.25328 9.39784 6.94348 8.4765C7.31068 7.98589 7.6874 7.62456 8.11784 7.19315C9.06032 6.25003 9.75256 5.82746 10.8616 5.15381C11.2669 4.90816 11.5444 4.81562 11.9755 4.6074C13.1403 4.04398 14.5044 3.74457 15.7842 3.56766C16.8273 3.42408 17.7732 3.42476 18.8136 3.56766C19.5847 3.67449 20.725 3.8691 21.4309 4.13856C23.3233 4.86121 23.9503 5.14292 25.568 6.37796C26.7403 7.27344 27.8168 8.53094 28.5831 9.80612C29.6092 11.512 30.481 13.8916 30.481 15.9486C30.481 16.9476 30.5164 17.6219 30.3484 18.6065C30.0002 20.6391 29.221 22.6199 28.0044 24.236C27.7168 24.6177 26.9069 25.6472 26.5254 25.9453C25.9563 26.3903 25.857 26.6394 24.7799 27.3879C21.4594 29.6967 16.9742 30.3098 13.1566 29.0312C12.4134 28.7821 11.2717 28.2813 10.5958 27.8723C9.68388 27.3205 10.0293 27.3436 8.64076 27.7846C8.1226 27.9492 5.55628 28.8141 5.2462 28.84C5.43048 28.4916 6.07376 26.455 6.25056 25.9242C6.87616 24.0461 6.82516 24.73 5.90648 23.1955C5.04084 21.7509 4.1174 19.3863 4.1174 17.0782ZM34 16.165V16.8897C33.9735 18.1853 33.8035 19.4727 33.4961 20.6935C33.3574 21.2467 33.2098 21.7033 33.0296 22.2204C32.6223 23.3902 31.6798 25.1777 30.9645 26.1345L30.0975 27.2606C29.7568 27.6424 29.4984 27.9288 29.136 28.2922C24.8968 32.5335 18.5035 34.2183 12.7065 32.5383C12.0734 32.3552 11.541 32.1899 10.9752 31.9449L9.36292 31.2325L3.76108 33.0023C3.36396 33.1194 3.04776 33.25 2.66424 33.3671C1.4688 33.7332 0 34.4783 0 33.5583C0 33.2391 2.85532 25.209 2.85532 24.9191C2.85532 24.9164 2.64792 24.5728 2.6112 24.4986L1.99104 23.2588C0.97444 21.2032 0.59704 18.5317 0.59704 16.214C0.59704 14.9388 0.8126 13.6602 1.06148 12.6246C1.58508 10.4485 2.42692 8.85619 3.61216 7.06999C4.13848 6.27657 4.78448 5.54575 5.46176 4.86733C6.6946 3.63298 8.60472 2.2496 10.2456 1.54737L11.6974 0.939716C13.7802 0.159228 15.6067 0 17.8636 0C23.3906 0 29.1026 3.50777 31.7886 8.3268C32.0402 8.77862 32.2442 9.18009 32.4727 9.63532C33.4553 11.5957 33.9531 13.8773 34 16.165Z" fill="white"/>
<path fill-rule="evenodd" clip-rule="evenodd" d="M8.8985 12.958C8.8985 14.6762 9.73354 16.0459 10.6107 17.3579C11.3329 18.4378 12.4862 19.8082 13.396 20.6846C15.0273 22.2558 17.0041 23.3976 19.1828 24.0638C21.5676 24.7926 22.8161 24.9117 24.7704 23.5249C25.5327 22.9839 26.0311 21.885 26.0311 20.6003C26.0311 19.751 25.1818 19.5428 24.1509 19.0264C23.509 18.7052 22.1184 18.0084 21.5159 18.0084C20.9134 18.0084 20.2552 19.1951 19.7064 19.7857C19.5854 19.9157 19.5541 19.9239 19.4569 20.0681C18.9802 19.9572 18.1594 19.4918 17.7705 19.2312C16.1405 18.1383 15.0369 17.0483 13.9455 15.4165C14.1719 15.0783 14.4255 14.8231 14.6921 14.5026C15.5367 13.4826 15.3272 13.0485 14.8308 11.9387C13.5592 9.09163 13.9019 8.26487 11.116 9.06373C10.521 9.23384 10.2333 9.49514 9.90286 9.90954C9.2555 10.7213 8.8985 11.8985 8.8985 12.958Z" fill="white"/>
</svg>
