<svg width="34" height="34" viewBox="0 0 34 34" fill="none" xmlns="http://www.w3.org/2000/svg">
<path fill-rule="evenodd" clip-rule="evenodd" d="M17.257 22.5569C15.6277 22.5569 14.2242 22.036 13.1213 20.9398C9.70426 17.5446 11.9809 11.4429 17.1265 11.4429C22.2129 11.4429 24.7846 18.1301 20.3211 21.5022C19.5636 22.0741 18.309 22.5569 17.257 22.5569ZM8.43198 16.9999C8.43198 24.5567 17.9207 28.9618 23.647 22.5399C24.9152 21.1166 25.6904 18.9474 25.6904 16.9999C25.6904 10.3767 18.2328 5.85063 12.1448 9.92587C10.0633 11.3192 8.43198 14.012 8.43198 16.9999Z" fill="white"/>
<path fill-rule="evenodd" clip-rule="evenodd" d="M23.9904 7.84787V8.17495C23.9904 9.17387 24.8873 10.0708 25.8869 10.0708C26.605 10.0708 26.9409 9.98919 27.4734 9.43499C29.2386 7.59831 26.5207 4.82391 24.6595 6.55587C24.3671 6.82787 23.9904 7.31611 23.9904 7.84787Z" fill="white"/>
<path d="M7.7622 0H26.2378C28.3669 0 30.3062 0.87244 31.7152 2.27868L31.7213 2.2848C33.1276 3.69376 34 5.63312 34 7.7622V26.2378C34 28.3669 33.1276 30.3062 31.7213 31.7152L31.7152 31.7213C30.3062 33.1276 28.3669 34 26.2378 34H7.7622C5.63312 34 3.69376 33.1276 2.2848 31.7213L2.27868 31.7152C0.87244 30.3062 0 28.3669 0 26.2378V7.7622C0 5.63312 0.87244 3.69376 2.27868 2.2848L2.2848 2.27868C3.69376 0.87244 5.63312 0 7.7622 0ZM26.2378 3.20756H7.7622C6.50692 3.20756 5.3686 3.71824 4.54648 4.54036L4.54036 4.54648C3.71824 5.3686 3.20756 6.50692 3.20756 7.7622V26.2378C3.20756 27.4931 3.71824 28.6314 4.54036 29.4535L4.54648 29.4596C5.3686 30.2818 6.50692 30.7924 7.7622 30.7924H26.2378C27.4931 30.7924 28.6314 30.2818 29.4535 29.4596L29.4596 29.4535C30.2818 28.6314 30.7924 27.4931 30.7924 26.2378V7.7622C30.7924 6.50692 30.2818 5.3686 29.4596 4.54648L29.4535 4.54036C28.6314 3.71824 27.4931 3.20756 26.2378 3.20756Z" fill="white"/>
</svg>
