<svg width="88" height="59" viewBox="0 0 88 59" fill="none" xmlns="http://www.w3.org/2000/svg">
<path fill-rule="evenodd" clip-rule="evenodd" d="M34.9712 24.2054L11.528 24.2346L11.5004 1.39307L0.744371 1.19182C0.225689 18.0589 0.848591 38.2638 0.692607 55.736L11.4769 55.7691C11.5918 48.7029 11.2612 40.3599 11.5466 33.7621L29.6094 33.6893C29.1805 35.6652 27.6475 38.4434 26.9491 40.8896C24.3263 50.0733 29.3986 58.9177 38.9529 58.3982C32.1486 56.093 32.4754 50.2831 35.1731 43.7564C37.3655 38.4526 40.4479 33.8083 43.0952 28.6786C45.3407 24.3267 49.0429 17.3221 48.2989 11.3762C47.548 5.37721 42.7949 0.260602 35.876 0.59559C40.6477 3.06113 42.7149 4.96585 40.6325 11.9305C39.2042 16.7075 36.4865 20.2314 34.9712 24.2054Z" fill="white"/>
<path fill-rule="evenodd" clip-rule="evenodd" d="M67.1171 36.3227L47.853 36.405C48.7233 33.9083 55.4383 24.3637 52.7389 16.9992C52.4028 16.0821 52.545 16.4069 52.0836 15.8415C51.2174 29.0395 43.1752 35.7334 39.0654 45.8496C37.1657 50.5263 38.4284 54.5249 41.753 56.1965C40.8227 53.3577 39.6856 49.1968 42.4408 45.8083L71.4625 45.7332C72.2463 47.87 75.1082 53.9532 76.3232 55.7901L87.4661 55.7816L61.8591 1.2187L51.098 1.16986L67.1171 36.3227Z" fill="white"/>
</svg>

